<?xml version="1.0" standalone="no"?>
<!DOCTYPE svg PUBLIC "-//W3C//DTD SVG 20010904//EN"
 "http://www.w3.org/TR/2001/REC-SVG-20010904/DTD/svg10.dtd">
<svg version="1.0" xmlns="http://www.w3.org/2000/svg"
 width="290.000000pt" height="290.000000pt" viewBox="0 0 290.000000 290.000000"
 preserveAspectRatio="xMidYMid meet">
<metadata>
Created by potrace 1.10, written by Peter Selinger 2001-2011
</metadata>
<g transform="translate(0.000000,290.000000) scale(0.100000,-0.100000)"
fill="#000000" stroke="none">
<path d="M865 2345 c-18 -18 -25 -35 -25 -64 l0 -41 -82 2 c-64 1 -93 -3 -128
-19 -48 -21 -96 -70 -105 -106 -3 -12 -4 -241 -3 -509 3 -474 4 -487 24 -514
11 -15 33 -37 48 -48 27 -21 37 -21 848 -24 803 -2 822 -2 862 18 23 11 50 34
61 52 19 32 20 53 20 538 0 490 -1 506 -20 540 -12 19 -36 43 -55 55 -34 19
-50 20 -527 20 l-493 0 0 43 c0 29 -6 48 -20 62 -19 19 -33 20 -200 20 -179 0
-181 0 -205 -25z m393 -7 c7 -7 12 -29 12 -49 0 -70 -16 -68 528 -69 472 0
485 -1 513 -21 16 -11 35 -30 42 -42 16 -30 12 -1020 -5 -1054 -6 -13 -23 -31
-37 -40 -24 -17 -83 -18 -839 -21 -779 -2 -815 -2 -856 16 -78 35 -76 23 -76
572 0 480 2 504 34 535 41 39 74 49 166 53 52 2 101 9 108 14 6 6 12 26 12 46
0 68 11 72 210 72 123 0 180 -4 188 -12z"/>
<path d="M641 2179 c-84 -43 -81 -22 -81 -550 0 -463 0 -466 22 -494 12 -15
44 -38 72 -51 43 -20 53 -21 65 -10 11 11 14 94 18 423 2 224 1 473 -4 553 -9
166 -11 169 -92 129z m74 -549 c0 -545 0 -550 -20 -544 -36 11 -74 34 -95 56
-19 21 -20 33 -20 488 0 517 -3 492 68 530 72 38 67 80 67 -530z"/>
<path d="M1174 2130 c-56 -22 -81 -101 -48 -149 51 -72 164 -50 180 35 9 50
-3 82 -39 104 -34 21 -59 24 -93 10z m92 -33 c40 -34 38 -81 -5 -119 -26 -23
-39 -28 -60 -23 -69 17 -94 93 -46 140 31 32 75 32 111 2z"/>
<path d="M1866 2124 c-12 -11 -16 -36 -16 -90 0 -70 2 -78 29 -105 l29 -29
174 0 c122 0 178 4 186 12 20 20 15 158 -6 184 -31 39 -55 44 -221 44 -132 0
-162 -3 -175 -16z m376 -30 c14 -14 18 -32 18 -96 l0 -78 -175 0 c-215 0 -215
0 -215 113 0 41 2 76 4 78 2 2 82 3 177 2 144 -2 175 -6 191 -19z"/>
<path d="M1594 1869 c-121 -15 -233 -99 -291 -217 -25 -50 -28 -68 -28 -152 0
-82 4 -103 26 -150 39 -82 108 -153 187 -192 60 -29 76 -33 157 -33 79 0 97 4
148 29 78 38 151 112 187 189 27 55 30 72 30 158 0 86 -3 102 -30 156 -75 150
-225 232 -386 212z m214 -59 c74 -39 124 -92 161 -170 21 -46 26 -69 26 -140
0 -76 -3 -92 -32 -151 -39 -79 -102 -140 -181 -177 -47 -22 -71 -26 -137 -26
-106 1 -183 34 -255 110 -76 81 -95 129 -95 244 0 89 2 99 34 158 42 76 114
144 184 172 42 16 70 20 142 17 80 -3 97 -7 153 -37z"/>
<path d="M1565 1714 c-110 -40 -167 -159 -134 -279 16 -56 91 -129 149 -145
193 -52 353 139 265 317 -51 102 -169 147 -280 107z m161 -23 c92 -42 131
-109 121 -207 -8 -77 -44 -129 -110 -160 -104 -48 -211 -16 -271 79 -23 37
-32 124 -17 168 36 110 171 168 277 120z"/>
<path d="M1220 820 c0 -13 7 -20 20 -20 13 0 20 7 20 20 0 13 -7 20 -20 20
-13 0 -20 -7 -20 -20z"/>
<path d="M710 676 c0 -103 1 -106 23 -106 20 0 22 4 18 46 -3 43 -2 45 20 42
18 -2 28 -14 39 -45 11 -34 19 -43 37 -43 29 0 29 5 -2 58 -24 42 -24 43 -5
62 44 44 15 82 -69 88 l-61 4 0 -106z m100 59 c17 -20 -3 -45 -36 -45 -20 0
-24 5 -24 30 0 25 4 30 24 30 13 0 29 -7 36 -15z"/>
<path d="M900 675 l0 -105 65 0 c51 0 65 3 65 15 0 11 -12 15 -45 15 -43 0
-45 1 -45 30 0 28 3 30 35 30 24 0 35 5 35 15 0 10 -11 15 -35 15 -32 0 -35 2
-35 30 0 29 2 30 45 30 33 0 45 4 45 15 0 12 -14 15 -65 15 l-65 0 0 -105z"/>
<path d="M1089 773 c-9 -2 -21 -15 -28 -29 -14 -32 -1 -58 42 -80 39 -21 49
-34 35 -51 -13 -16 -42 -17 -69 -3 -15 8 -19 7 -19 -4 0 -23 38 -39 76 -31 45
8 68 42 55 79 -6 14 -14 26 -18 26 -5 0 -23 9 -40 20 -43 26 -35 54 13 48 22
-3 34 0 34 8 0 20 -39 29 -81 17z"/>
<path d="M1210 675 c0 -102 1 -105 23 -105 21 0 22 3 22 105 0 102 -1 105 -22
105 -22 0 -23 -3 -23 -105z"/>
<path d="M1307 774 c-4 -4 -7 -52 -7 -106 0 -91 1 -98 20 -98 18 0 20 7 21 93
l1 92 31 -93 c26 -78 35 -92 51 -90 15 2 26 24 47 87 16 46 31 87 35 90 3 3 4
-36 2 -87 -3 -90 -3 -92 20 -92 22 0 23 2 20 103 l-3 102 -32 3 c-30 3 -32 1
-52 -55 -39 -106 -35 -105 -63 -23 -23 69 -27 75 -54 78 -16 2 -33 0 -37 -4z
m123 -164 c0 -5 -4 -10 -10 -10 -5 0 -10 5 -10 10 0 6 5 10 10 10 6 0 10 -4
10 -10z"/>
<path d="M1671 718 c23 -46 32 -75 30 -105 -2 -40 0 -43 24 -43 23 0 25 3 25
48 0 33 9 63 30 101 17 30 30 56 30 58 0 1 -11 3 -23 3 -19 0 -27 -9 -37 -41
-8 -22 -17 -42 -20 -44 -4 -3 -15 16 -25 40 -13 36 -21 45 -41 45 l-24 0 31
-62z m63 -53 c-4 -8 -8 -15 -10 -15 -2 0 -4 7 -4 15 0 8 4 15 10 15 5 0 7 -7
4 -15z"/>
<path d="M1858 765 c-51 -28 -62 -131 -17 -171 30 -27 111 -26 139 2 27 26 37
94 20 133 -19 47 -89 64 -142 36z m93 -32 c8 -9 14 -35 14 -58 0 -23 -6 -49
-14 -58 -16 -20 -62 -22 -79 -5 -18 18 -15 103 4 122 20 21 58 20 75 -1z"/>
<path d="M2050 675 c0 -102 1 -105 23 -105 21 0 22 3 22 105 0 102 -1 105 -22
105 -22 0 -23 -3 -23 -105z"/>
<path d="M2132 736 c-18 -24 -32 -49 -32 -55 0 -6 14 -33 31 -61 23 -38 37
-50 55 -50 28 0 28 0 -18 67 -15 23 -28 45 -28 50 1 4 14 24 30 43 35 40 37
50 12 50 -10 0 -33 -20 -50 -44z"/>
</g>
</svg>
