<?xml version="1.0" standalone="no"?>
<!DOCTYPE svg PUBLIC "-//W3C//DTD SVG 20010904//EN"
 "http://www.w3.org/TR/2001/REC-SVG-20010904/DTD/svg10.dtd">
<svg version="1.0" xmlns="http://www.w3.org/2000/svg"
 width="300.000000pt" height="300.000000pt" viewBox="0 0 300.000000 300.000000"
 preserveAspectRatio="xMidYMid meet">
<metadata>
Created by potrace 1.10, written by Peter Selinger 2001-2011
</metadata>
<g transform="translate(0.000000,300.000000) scale(0.100000,-0.100000)"
fill="#3d85c6" stroke="none">
<path d="M1447 2549 c-37 -22 -48 -72 -46 -221 l1 -140 -140 1 c-189 2 -232
-16 -232 -99 0 -45 26 -78 71 -90 22 -6 99 -10 171 -9 l131 1 -2 -136 c-1 -80
2 -151 9 -170 29 -88 151 -88 180 -1 6 19 10 93 9 170 l-1 137 131 -1 c71 -1
148 3 170 9 45 12 71 45 71 90 0 83 -43 101 -232 99 l-140 -1 1 140 c2 151 -9
200 -47 221 -26 14 -81 14 -105 0z m84 -10 c11 -5 16 -15 13 -21 -4 -7 -3 -8
4 -4 23 14 32 -36 32 -182 0 -127 2 -151 16 -156 9 -3 81 -6 160 -6 93 0 143
-4 139 -10 -3 -5 0 -7 8 -5 17 7 42 -22 51 -57 4 -20 0 -34 -18 -55 l-24 -28
-164 -5 -163 -5 -5 -160 c-5 -155 -11 -192 -31 -179 -5 3 -8 0 -7 -8 2 -9 -10
-13 -42 -13 -32 0 -44 4 -42 13 1 8 -2 11 -7 8 -20 -13 -26 24 -31 179 l-5
160 -163 5 -164 5 -24 28 c-18 21 -22 35 -18 55 9 35 34 64 51 57 8 -2 11 0 8
5 -4 6 54 11 152 12 l158 3 5 160 c3 88 9 167 13 176 9 17 43 37 65 38 7 1 22
-4 33 -10z"/>
<path d="M1929 2063 c-13 -16 -12 -17 4 -4 9 7 17 15 17 17 0 8 -8 3 -21 -13z"/>
<path d="M1446 1725 c-9 -26 -7 -32 5 -12 6 10 9 21 6 23 -2 3 -7 -2 -11 -11z"/>
<path d="M1546 1717 c3 -10 9 -15 12 -12 3 3 0 11 -7 18 -10 9 -11 8 -5 -6z"/>
<path d="M1978 2193 c7 -3 16 -2 19 1 4 3 -2 6 -13 5 -11 0 -14 -3 -6 -6z"/>
<path d="M563 2162 l-333 -2 0 -863 0 -862 1270 0 1270 0 0 862 0 862 -335 3
c-295 3 -334 1 -328 -12 13 -29 15 -88 3 -109 l-11 -22 265 3 266 3 0 -727 0
-728 -1130 1 -1130 1 0 726 0 727 266 -3 c262 -3 265 -3 255 17 -14 25 -14 77
0 103 6 11 9 20 7 21 -2 1 -153 1 -335 -1z m297 -72 l0 -50 -236 0 c-183 0
-234 3 -228 12 5 7 -4 3 -20 -8 l-28 -20 -1 -714 c0 -538 3 -721 12 -737 l12
-23 1128 0 c933 0 1130 2 1140 13 17 21 20 1450 3 1466 -9 9 -80 12 -257 11
l-245 -1 0 51 0 50 303 0 304 0 1 -827 c1 -456 -1 -835 -3 -843 -4 -13 -150
-15 -1247 -13 l-1243 3 -1 840 -1 840 304 0 303 0 0 -50z"/>
<path d="M698 1810 c-74 -39 -108 -124 -83 -206 24 -82 83 -124 171 -124 77 0
141 50 165 129 42 142 -120 271 -253 201z m164 -24 c61 -34 85 -91 71 -169 -4
-23 -8 -27 -26 -21 -21 6 -21 5 -3 -8 18 -14 17 -16 -15 -46 -41 -39 -68 -49
-80 -31 -7 11 -9 11 -9 1 0 -9 -14 -11 -47 -8 -41 4 -53 10 -85 46 -21 24 -39
54 -40 69 -2 40 3 85 10 91 4 3 7 12 7 20 0 8 6 14 13 13 6 -2 11 2 10 9 -2 7
7 17 20 23 12 5 22 13 22 18 0 4 5 5 10 2 6 -3 10 -1 10 5 0 18 92 9 132 -14z"/>
<path d="M880 1751 c0 -5 7 -12 16 -15 14 -5 15 -4 4 9 -14 17 -20 19 -20 6z"/>
<path d="M2074 1805 c-7 -18 -358 -561 -374 -578 -4 -5 -75 39 -157 96 l-150
104 -129 -140 c-71 -77 -132 -144 -136 -150 -4 -7 -21 3 -45 24 -146 131 -341
145 -472 32 -93 -79 -130 -179 -138 -370 l-6 -133 1029 0 1029 0 -5 167 -5
168 -79 145 c-43 80 -95 174 -114 210 -19 36 -42 79 -52 95 -17 30 -66 120
-146 270 -34 64 -44 76 -50 60z m31 -98 c-5 -17 -4 -19 4 -7 12 17 13 16 34
-29 9 -18 14 -39 10 -45 -3 -6 -2 -8 2 -3 11 10 58 -70 49 -85 -4 -6 -3 -8 3
-5 13 8 26 -20 16 -35 -3 -7 -1 -8 5 -4 7 4 12 1 12 -7 0 -8 12 -32 28 -53 36
-52 115 -204 106 -204 -4 0 2 -10 13 -22 18 -20 113 -192 113 -205 0 -2 -3 -2
-7 0 -5 3 -7 -20 -6 -51 2 -32 4 -99 5 -149 l3 -93 -1002 0 -1003 0 0 45 c0
28 4 44 10 40 6 -4 6 4 -1 22 -8 20 -7 50 2 108 14 95 23 123 51 152 12 13 18
26 14 30 -17 17 110 120 159 128 6 0 18 5 28 9 33 15 149 1 204 -24 29 -14 53
-29 53 -33 0 -5 4 -6 8 -3 5 3 30 -14 55 -38 45 -41 48 -42 63 -25 9 10 21 16
27 12 5 -3 7 -2 4 3 -6 11 72 100 85 97 4 -2 4 5 1 15 -3 9 -3 14 1 10 5 -4
19 5 33 20 14 15 19 18 12 7 -13 -18 -13 -19 3 -6 10 7 16 17 13 21 -3 4 12
25 33 47 20 22 33 32 27 23 -5 -9 0 -5 13 8 20 21 27 21 23 -1 -1 -5 3 -6 8
-2 14 8 62 -25 54 -38 -3 -5 -1 -7 4 -4 6 4 16 0 23 -8 7 -8 18 -15 26 -15 7
0 16 -5 20 -12 5 -7 3 -8 -6 -3 -9 5 -11 4 -6 -4 4 -6 15 -10 24 -9 9 2 16 -3
14 -10 -1 -6 1 -11 5 -10 13 4 93 -45 88 -53 -5 -7 43 -5 49 2 10 12 73 106
77 114 17 39 93 144 101 139 6 -4 8 -1 6 7 -3 8 4 28 16 44 11 17 28 44 36 60
8 17 23 29 32 29 10 -1 14 4 11 12 -6 17 32 80 53 88 8 3 12 10 9 16 -3 5 2
21 12 34 l18 24 13 -24 c7 -14 10 -35 7 -47z"/>
<path d="M1856 1413 c-6 -14 -5 -15 5 -6 7 7 10 15 7 18 -3 3 -9 -2 -12 -12z"/>
<path d="M2336 1277 c3 -10 9 -15 12 -12 3 3 0 11 -7 18 -10 9 -11 8 -5 -6z"/>
<path d="M2331 1223 c-1 -17 16 -25 25 -12 4 7 3 9 -4 5 -5 -3 -13 0 -15 6 -4
9 -6 10 -6 1z"/>
<path d="M1240 1216 c0 -2 7 -7 16 -10 8 -3 12 -2 9 4 -6 10 -25 14 -25 6z"/>
<path d="M1003 1153 c0 -9 4 -10 14 -2 7 6 13 12 13 14 0 1 -6 2 -13 2 -8 0
-14 -6 -14 -14z"/>
<path d="M640 1150 c-9 -6 -10 -10 -3 -10 6 0 15 5 18 10 8 12 4 12 -15 0z"/>
<path d="M502 870 c0 -14 2 -19 5 -12 2 6 2 18 0 25 -3 6 -5 1 -5 -13z"/>
</g>
</svg>
